<svg version="1" xmlns="http://www.w3.org/2000/svg" width="533.333" height="533.333" viewBox="0 0 400.000000 400.000000"><path d="M179.3 24.7c.9.2 2.5.2 3.5 0 .9-.3.1-.5-1.8-.5-1.9 0-2.7.2-1.7.5zM186.5 25.2c1 .6 3.3 1.2 4.9 1.4 3.8.3 1.4-1.1-3.4-1.9-2.9-.6-3.2-.5-1.5.5zM174 26c-.9.6-1 1-.3 1 .6 0 1.5-.5 1.8-1 .8-1.2.4-1.2-1.5 0zM202.8 29.9c.8.4 1.3 1.2 1.2 1.7-.3.8 6.2 4.4 10.4 5.8 1 .4 1.7.8 1.5 1.1-.3.2-4-.5-8.4-1.6-7.7-2-8-2-19.9-.2-6.7 1-11.1 1.9-9.8 2.1 2.3.4 3.1 2.1 1 2.3-4.6.3-6.2.7-6.6 1.7-.2.7-1.6 1.2-3 1.2-3.8 0-18.8 3.7-22.8 5.6-2 1-3.1 2.1-2.8 2.9.4 1-.1 1.2-1.5.8-2.4-.6-9.1 4-9.1 6.3 0 .7-.7 1.4-1.5 1.4s-1.5.5-1.5 1c0 .6-1.5 2.7-3.2 4.6-3.2 3.5-8.8 12.2-8.8 13.7 0 .5 2.1-.9 4.8-3 2.6-2.1 4-2.9 3.2-1.8-.8 1.1-2.3 2.6-3.2 3.3-1 .7-1.8 1.7-1.8 2.2 0 .5-1.4 3.9-3.2 7.7-2.8 6-3.2 7.7-3.1 14.8.1 4.4.7 9.3 1.2 10.8.8 2.1.8 2.6-.1 2.1-.8-.5-.9.5-.4 3.7.6 4.1.6 4.3-.8 2.4-2.1-2.8-2-1.8.9 6.7 3 8.7 3.1 10.8.8 10.8-1.5 0-1.6.2-.3 1s1.1 1.1-.7 1.6c-1.9.5-2.3 1.3-2.3 5 0 3.8.4 4.6 2.5 5.4 1.4.5 3 2 3.5 3.2.6 1.3 1.4 3 1.9 3.8.5.8 1.2 2.4 1.6 3.4.3 1 .7 1.7 1 1.4.2-.2-.2-2.6-1-5.3-2.4-7.9-2.1-9.3 2.2-9.7 3.3-.3 4.2.3 9.9 6 5.8 5.8 6.5 6.2 10.9 6.2 6.2 0 13.2-1.9 13.9-3.7.5-1.2 0-1.3-2.3-.8-3.5.7-5.1-1-1.7-1.9 1.3-.3 2.6-1.4 2.8-2.4.3-1 1.3-1.9 2.2-1.9 1.2 0 1.6.6 1.2 1.9-.3 1.4 0 1.8 1.1 1.4.8-.3 1.8-.6 2.3-.6.5 0 1.1-.6 1.3-1.3.6-1.7-.1 3.2-.9 6.3-.6 2.4-.6 2.4.9.5 1.6-2 1.6-1.9 1.7.7 0 1.5-1.1 3.9-2.5 5.4-2.9 3.2-3.2 4.6-.7 4.3 3-.3 3.5.1 2.2 1.6-.7.9-1 1.9-.6 2.2 1.1 1.2 2.3-1.4 5-11.2 3.9-14 4.1-14.5 7.5-14.5 3.3 0 4.6 1.3 7.6 7.8 2.9 6 9 12.6 10.7 11.6.8-.5.4-1-1.4-1.6-2.6-.9-5-4.8-4.4-7 .3-.7.7-2.5 1-4 .9-3.8 4.3-5.6 6.2-3.1 1.1 1.3 1.7 1.4 2 .5.3-.6 1.1-1.2 1.7-1.2.6 0 2.4-1.2 3.9-2.7l2.8-2.7v2.5c0 1.4.9 3.5 2 4.7 3.6 3.8 8.9 2.4 10.5-2.8.9-2.7 2.5-1.5 2.5 1.8 0 1.5.7 3.5 1.4 4.5 1.2 1.6 1.5 1.6 3.7-.6 1.7-1.6 3.5-2.3 5.9-2.1 3.1.1 3.6-.2 4.2-3 .4-1.8.6 0 .4 4.3-.2 4.3 0 6.8.5 6 .5-.8.9-2.1.9-3 0-.9.7-3 1.5-4.5 1.4-2.7 1.5-2.8 1.5-.6 0 1.6.4 2.1 1.2 1.5.7-.4 2.2-.7 3.3-.8 1.1 0 1.9-.5 1.8-1.1-.1-.7 1.2-1.8 2.9-2.5 2.8-1.2 3.2-1.1 4.9 1 1 1.3 2.3 4 2.9 6.2.6 2.1 1.5 3.9 2 3.9.9 0 1.3-1.3 2.4-7.6.8-5 7.1-13.3 10.1-13.4.6 0 .5.4-.1.8-1.5 1-4.7 7.3-4 7.9.3.3 1-.6 1.5-2.1 1.2-3 1.8-3.2 4.3-.9 1 .9 1.8 1.1 1.8.5 0-.6.7-.9 1.5-.6 2.2.9 1.8-1.3-.5-3.6-1.8-1.8-1.9-2.1-.4-2.7.9-.3 1.9 0 2.4.6 1.7 2.9 7.3-9.1 6.2-13.2-.1-.4.5-2.1 1.3-3.8 3.7-7.1 1.2-23.6-5-32.7-1.3-1.9-2.2-3.9-1.9-4.4.6-.9-4.4-9.8-5.6-9.8-1.6 0-1.9 3.2-.8 7.9.6 2.7.7 5.7.3 6.7-.6 1.5-1 1-1.6-2.2-1-5.6-4.3-12.3-7.9-16.3-1.7-1.8-3.7-4.6-4.6-6.3l-1.6-3.1 3.5 2.2c3.4 2.1 3.5 2.1 4 .2.6-2.4-.7-4.2-5.3-7.5-6.8-4.9-11-6.6-17.7-7.4-4.5-.5-6.7-1.2-6.6-2 .2-.7-.2-1.2-.8-1.2-1.2 0-11.3-10.2-11.1-11.2.3-1.5-3.1-2.9-12.3-4.8-10.7-2.2-13.8-2.5-11.7-1.1zm29.9 29.2c-.4 1.4.5 2.7 2.9 4.6 3.5 2.6 12.4 13.6 12.4 15.2 0 .4.7 2.1 1.5 3.8 1.8 3.6 3.3 12.9 4 24.1.3 4.6 1 9.2 1.5 10.2s1.3 5.7 1.6 10.4l.7 8.6h-3.2c-1.7 0-3.1.4-3.1 1 0 .5 1.8 1 3.9 1 3.5 0 5.2 1.2 5 3.6 0 .4.5 1 1.1 1.4.7.4-.8.9-3.4 1.1-3.2.3-4.6 0-4.6-.8 0-.7-.7-1.3-1.5-1.3s-1.5-.8-1.5-1.9c0-1.9-4.5-3-12.9-3.2-2.6 0-3.1-.2-1.8-.8 1.7-.6 1.6-.9-1-2.1-1.5-.7-3.2-1.3-3.6-1.2-.5.2-2-.6-3.4-1.7-1.7-1.4-3.9-2-7-1.9-2.5 0-4.8-.4-5.2-.9-.3-.6-3.1-.9-6.1-.8-3 .2-7-.2-8.8-.8-2.6-.9-3.5-.9-4.2.2-.4.8-1.5 1.1-2.5.7-2.4-.9-8.1 3.8-8.8 7.3-.5 2.4-.9 2.7-3.7 2.3-2.5-.4-2.9-.2-2.4 1.3.5 1.2.9 1.3 1.4.4.6-.9 1.2-.9 2.4.3.8.9 1.2 1.8.9 2.2-.4.3.2.6 1.3.7 1.2 0 .8.4-1.1 1-3.5 1-9.4.2-11.2-1.7-1-1-1-1.3 0-1.7.7-.3.5-.6-.5-.6-1.2-.1-1.5-.6-1.1-1.8.4-1.1.3-1.4-.5-.9-.7.4-2.7-.8-4.8-2.6-2-1.8-4.6-3.4-5.7-3.5-1.2-.1-4.6-.4-7.6-.7-3.5-.4-5.8-.2-6.7.5-.8.7-3.9 1.2-6.8 1.3-4.6.1-5.8.6-9.4 3.8-2.2 2-4.2 4.5-4.5 5.5-.3 1-.5-2.9-.6-8.6 0-5.7.2-10.1.5-9.8.9.9 5.6-8.1 5.1-9.6-.2-.7.2-1.7.8-2.4.7-.6 1.5-2.9 1.8-5 .4-2.1 1.5-4.8 2.6-6 1.5-1.6 1.8-3 1.4-6-.5-4.2 2-9.9 3.8-8.7.5.3 1.2-.2 1.5-1 .3-.9 1.2-1.6 2-1.6s1.4-.5 1.4-1c0-.6.7-1 1.5-1s2.2-1.4 3-3.1c1.8-3.3 8.2-6.8 12.7-6.9 1.4 0 2.8-.5 3-1.1.2-.6 1.7-1.2 3.2-1.2 3.2 0 6.8-2.5 5.9-4-.4-.6-.1-.7.7-.2.7.4 1.6.2 2-.5.5-.8 3.6-1.4 7.6-1.7 10.7-.5 15.4-.9 22.4-1.8 7.4-1 9.6-.9 12.7.7 2.7 1.3 12-1.3 11.5-3.2-.1-.6.3-.8.9-.5.6.4.9 1.6.6 2.6zm-90.2 9.7c.1 1.3.8 2.7 1.5 3.2.9.6.8 1.2-.8 2.6-5.4 5.1-7.5 6.8-6.8 5.6.4-.7.1-1.2-.8-1.3-5.4-.5-5.3-1.4.3-4.6 3.7-2 5.1-3.4 5.1-5s-.5-2-2-1.6c-1.1.3-2.3.9-2.6 1.4-.3.5-1.1.9-1.7.9-.7-.1-.1-1 1.2-2.1 3.2-2.6 6.4-2.1 6.6.9zM270 81.4c0 .9-.7 1.2-2 .9-1.1-.3-2-.9-2-1.4 0-.5.9-.9 2-.9s2 .6 2 1.4zM131.8 99.7c-.8 1-1.8 2.5-2.1 3.3-.4 1-.6.7-.6-.8-.1-3 2.1-6.4 3.3-5.2.6.6.4 1.6-.6 2.7zm87.5 38c-.7.2-1.9.2-2.5 0-.7-.3-.2-.5 1.2-.5s1.9.2 1.3.5zm6 0c-.7.2-1.9.2-2.5 0-.7-.3-.2-.5 1.2-.5s1.9.2 1.3.5zm-15.5 1c-1 .2-2.8.2-4 0-1.3-.2-.5-.4 1.7-.4 2.2-.1 3.2.1 2.3.4zM237 140c.8.5 1.1 1 .5 1-.5 0-1.7-.5-2.5-1s-1-1-.5-1c.6 0 1.7.5 2.5 1zm-41.3.6c-.3.3-1.2.4-1.9.1-.8-.3-.5-.6.6-.6 1.1-.1 1.7.2 1.3.5zm-26.2 1.4l3 .8h-3c-1.6 0-3.9-.3-5-.8l-2-.9 2 .1c1.1 0 3.4.4 5 .8zm82.1 3.4c.1.8-1 1.6-2.4 1.9-2.6.5-2.6.4-.7-1 1.1-.8 1.9-2 1.7-2.6-.2-.7 0-.8.4-.4s.9 1.4 1 2.1zm-102.2 11.4c-.1.2-1.1.1-2.2-.2-2.3-.8-3.4-2.9-2.6-5.1.5-1.1 1.2-.7 2.8 1.8 1.3 1.7 2.2 3.4 2 3.5zM166.1 32.2c-2.3 1-4.1 2-4.1 2.3 0 .2 5.4.3 12 .2 6.6-.1 12-.5 12-1 0-.4.9-.7 2-.7 3.7 0 2-1.8-2.3-2.4-7.1-1.1-15.3-.4-19.6 1.6z"/><path d="M269.3 155.2c-.6.7-1.4 2.3-1.7 3.5-.6 1.9-.3 2.3 1.2 2.3 1.3 0 2.1-.8 2.4-2.4.6-3.2-.5-5.2-1.9-3.4zM205.6 157.9c1.3 1.2 9 2.1 10.1 1.1.4-.4 1.7-1 2.8-1.3 1.3-.3.9-.5-1.2-.6-1.8 0-3.3.3-3.3.9 0 .6-.9.6-2.6 0-3.2-1.3-7.1-1.3-5.8-.1zM217.3 166.7c.9.2 2.3.2 3 0 .6-.3-.1-.5-1.8-.5-1.6 0-2.2.2-1.2.5zM131.5 168c3.9.9 17.2 1.4 16.4.6-.2-.2-4.9-.6-10.4-.9-6.7-.3-8.7-.2-6 .3zM265 177c-.8 1.6-.8 2 .4 2 1.6 0 2.9-2.7 1.6-3.5-.5-.3-1.4.4-2 1.5zM165 176.2c0 .3-.7 2.2-1.5 4.2-1.3 3.1-1.3 3.6-.1 3.6 1.5 0 3.4-6.5 2.2-7.7-.3-.4-.6-.4-.6-.1zM161.6 193.1c-1.4 1.3-1.7 2.6-1.2 4.9 1 5.5 6.9 9 14.8 9 6 0 7.5-.7 9.1-4.1.8-1.6 2.5-2.6 5.2-3.1 7.3-1.5 8.4-1.8 9.9-3.4.9-.8 1.6-2.5 1.6-3.7 0-1.3-.3-1.7-.8-1.1-1.1 1.7-4 2.3-11.5 2.5-3.7.1-7.9.8-9.3 1.5-5 2.6-11.2 1.2-14.9-3.2-.8-.9-1.5-.8-2.9.7zM259.4 192.2c-.5.7-.3.8.6.3.9-.5 1-.2.6 1.4-.3 1.1-.9 3-1.2 4.1-.3 1.1-.1 2 .5 2s1.9-.9 2.8-2c1-1.1 2.3-2 3-2 2.3 0 1.3-1.5-2.2-3.2-2.4-1.2-3.6-1.4-4.1-.6zM151.3 197.7c-.3 1-1.9 3.4-3.5 5.4-2.8 3.7-3.8 9.2-1.8 10.4.6.4 1-.7 1-2.7s1.2-5 3-7.7c2.7-4 3.8-7.1 2.5-7.1-.3 0-.8.8-1.2 1.7zM218.7 203.5c1.5 1.9 2.9 3.2 3.1 3 .6-.6-2.8-5.3-4.4-5.9-.8-.3-.2 1 1.3 2.9zM151.8 212.7c-2.7.7-2.2 1.6 2.8 5.1 2.5 1.8 5.3 4.7 6.2 6.5 2.1 3.9 13 14.9 14.2 14.2.5-.3 1.4.8 2.2 2.5 1.1 2.5 1.9 3 4.9 3 2.8 0 4-.6 5.8-3 1.2-1.7 2.6-2.8 3.2-2.5 1.4.9 6.6-3.1 14.9-11.5 4.1-4.2 8.5-8.2 9.8-8.9 3.4-1.8 2.6-3.1-2-3.1-2.4-.1-7.2-.6-10.8-1.3-5.4-1.1-14.4-1.3-21-.5-.8.1-4.5-.1-8.1-.6-4.6-.6-8.4-.4-12.4.5-4.5 1-6 1-6.3.1-.4-1.2-.5-1.3-3.4-.5zm19.4 7.8c1.6-.1 3.1-.5 3.5-.8 1-1.1 6.1-.8 6.8.3.4.7 1.2.7 2.5 0 2.6-1.4 6.7-1.3 7.3.2.3 1 .8 1 2.1-.1 1.4-1.2 2.2-1.2 3.6-.3 1.2.7 2.1.8 2.5.2.3-.6 1.3-1 2.1-1 1.7 0 1.9 3.6.2 4.7-1.2.7-2.5 1-8.5 1.6-1.3.1-2.3.8-2.3 1.4 0 .9-2.1 1.2-7.2 1.2-7.1-.1-10.2-1-12.4-3.9-.7-.8-1.6-1.2-2-.8-1 1-3.4-1.1-3.4-2.9 0-1.1.4-1.3 1.3-.6.6.5 2.4.9 3.9.8zm9 9.5c1.4.5 2.9.5 3.3.2 1-1.1 7.9-1 9.3.1 1 .7.8 1.3-.5 2.3-1 .7-2.6 1.4-3.5 1.4-1 0-1.8.7-1.8 1.5s-.7 1.5-1.6 1.5c-1.4 0-1.5-.2-.3-1.7 1.2-1.4 1.2-1.6-.1-1.1-.8.2-1.6 1.4-1.8 2.6-.2 1.2-1 2.2-1.9 2.2-.9 0-1.3-.6-.9-1.5.3-.8 0-1.5-.7-1.6-5-.3-8.7-2.1-8.7-4.2 0-1.6 3.4-3.7 5-3.1.8.3 2.7 1 4.2 1.4zM230 229.1c0 .5.5.7 1 .4.6-.3 1-.8 1-1.1 0-.2-.4-.4-1-.4-.5 0-1 .5-1 1.1zM227.4 233.5c-.9 2.2.1 2.9 1.5 1.1.8-1 .9-1.6.1-2.1-.5-.3-1.3.1-1.6 1zM146 234.4c0 .8.7 1.6 1.5 2 1.7.6 1.8.4.9-1.8-.8-2-2.4-2.1-2.4-.2zM238.4 239.1c-2.2 1.7-4.3 3.7-4.7 4.5-.5.8-1.2 1.2-1.8.9-.5-.4-1.2.2-1.6 1.2-.7 1.9-2.2 3.3-3.6 3.3-.5 0-.5-.5-.2-1 .9-1.4-.8-1.3-2.3.2-.9.9-1.2.8-1.3-.8 0-1.1-.6-.2-1.5 2-.8 2.2-2.5 5.1-3.9 6.5-1.3 1.4-3.6 4.1-5.1 5.9-3.1 3.8-4.9 4.7-14.9 7.2-10.2 2.6-22.6 1.5-31.3-2.8-3.5-1.8-7.2-4.2-8.2-5.4-1.1-1.3-1.9-1.9-2-1.5 0 .9 3.8 6.7 5 7.7.4.3 2 3.1 3.5 6.3 3.3 6.5 11.4 15.6 13.3 14.9.7-.2 1.9.1 2.7.8.8.7 2.6.9 4.2.6 1.5-.4 4.5-.7 6.6-.8 2.8-.1 3.7-.5 3.7-1.9 0-1 1.1-2 2.8-2.4 5.8-1.4 13.4-6.9 22.8-16.6 16.2-16.7 16-16.4 20.9-24.8 4.3-7.5 3.2-9-3.1-4zM146 239c0 .5.5 1 1.1 1 .5 0 .7-.5.4-1-.3-.6-.8-1-1.1-1-.2 0-.4.4-.4 1zM148.7 240.4c-.5 1.8-.4 3.3.2 3.9.6.6 1.1 1.9 1.1 2.8 0 .9.7 2.3 1.6 3 .9.7 2 2.2 2.4 3.4.9 2 .9 2 .9-.1.1-1.1-.7-2.9-1.7-4-.9-1-1.6-2.9-1.4-4.2.2-1.2-.1-2.2-.7-2.2-.5 0-1.1-1.2-1.3-2.8l-.3-2.7-.8 2.9zM250 271.1c0 .7 1.1 3.2 2.5 5.5 1.4 2.4 2.9 7 3.4 10.1l.9 5.8.1-6.5c.1-5-.4-7.6-2.1-11-2.2-4.3-4.8-6.4-4.8-3.9z"/><path d="M257 274.2c0 .2 1.1 2.5 2.5 5.2 3.2 6.2 3.4 13 .5 14.6-1.8 1-7.6 8.8-10.9 14.9-.8 1.4-2 3.1-2.6 3.7-.6.7-2.3 2.5-3.6 4-3.8 4.4-7.5 6.7-22.6 14.3-27.7 14-38.4 14.2-64.9 1.6-5.2-2.5-9.7-4.5-10-4.5-1.3 0-12.1-11-16.1-16.5-4.4-6-8-15.3-6.9-18.1.3-.9.1-1.2-.4-.9-1.8 1.1-1-1.2 1-3 1.1-1 2-2.2 2-2.6 0-1-2.9 0-5 1.6-.8.7-2.8 1.5-4.3 1.9-4 1-21.5 9.6-19.4 9.6 2.3 0 9-2.8 9.8-4.1.3-.5 1.8-1.1 3.3-1.3 1.6-.2 3.1-.7 3.4-1.3.4-.6 1.7-1.3 3-1.7 1.7-.6 2.2-.3 2.2.9 0 .9-.9 1.9-2 2.2-1.1.3-2 1-2 1.5s-.4.6-1 .3c-.5-.3-1-.1-1 .4 0 .6-.7 1.1-1.5 1.1-.7 0-1.8.8-2.3 1.7-.8 1.3-2.4 1.7-7 1.7-3.3.1-5.8.4-5.5.8.2.5 1.2.8 2.1.8 1.5 0 1.5.2.2 1-.9.6-1.8.6-2.4 0-.6-.6-1.5-1-2.1-1-.5 0-.3.4.5 1 1.7 1 1.4 1.5-1.9 2.5-1.9.6-2.3.4-1.8-.8.3-.8.3-1.7 0-2-.6-.7-10 4.1-10.5 5.3-.2.5-2 1.1-4 1.2-2.1.2-3.8.6-3.8 1 0 .5-.6.8-1.2.8-.7 0-2.5.6-4 1.4-2 1.1-2.8 1.1-3.2.3-.2-.7-.5-.4-.5.5-.1 1.1-.9 1.8-2 1.8s-2.3.4-2.6 1c-.3.5-1.7 1-3.1 1-1.7 0-2.3.4-1.8 1.2.5.8 0 .9-1.6.5-1.2-.3-3-.2-3.9.3-.9.4-3.5 1.6-5.8 2.6-2.4 1.1-4.3 2.2-4.3 2.6 0 .5-.9.8-2 .8s-2 .5-2 1.1c0 .7-1 .9-2.4.7-1.4-.3-3.1-.1-3.8.4-.9.7-.8.8.5.4 1.1-.3 1.6-.2 1.2.4-.3.6-1.2 1-2 1s-1.1.7-.8 2c.3 1.2 0 2-.6 2-.7 0-.9-.5-.6-1 .3-.6.1-1-.4-1-.6 0-1.1.6-1.1 1.4 0 .8-.6 1.4-1.3 1.3-3.3-.1-4.7.4-4.7 1.8 0 1-1.1 1.5-3.5 1.5-2.5 0-3.3.4-2.9 1.3.3.8-.2 2-1.1 2.7-2 1.7-1.9 2.7.5 3.3 1.4.4 2 1.4 2 3.4 0 1.6.3 3.3.7 3.7 1.1 1 1.3 7.6.3 7.6-.5 0-1.1-1.4-1.5-3-.7-3.1-2.5-4.2-2.5-1.5 0 2.2-2.1 1.8-2.7-.5-.4-1.6-.8-1.7-1.8-.7-1.7 1.7.1 12.8 2.2 14.1 1.3.7 1.3 1 .2 1.7-1.2.7-1 1.5.6 4.6 1.1 2 1.9 4.1 1.7 4.7-.2.6.5 1.6 1.4 2.3 1.4 1 1.4 1.3.3 1.3-1 .1-.9.3.4 1.1 2.1 1.2 2.3 4.4.2 3.5-.8-.3-2.2-.9-3-1.2-1-.4-1.5 0-1.5 1 0 .9-.4 1.6-.9 1.6s-1.1.9-1.4 2c-.3 1.4 0 2 1 2 1.4 0 1.4.3-.2 2-.9 1-1.5 2.6-1.2 3.4.5 1.3 5.8 1.5 39.1 1.6 21.1 0 38.6-.4 38.8-.9.5-1.3 4.8-2.4 4.8-1.2 0 .5-1 1.1-2.2 1.3-1.3.2.5.5 3.9.6 4.9.1 6.3-.2 6.3-1.3 0-1.3 2.9-3.5 4.5-3.5.4 0 .4 1.1.1 2.5-.6 2.2-.3 2.5 1.8 2.5 1.5 0 2.6-.7 2.9-1.7.4-1.7.5-1.7.6-.1.1 2.2 6.1 2.6 6.1.5s-1.2-2.8-2.7-1.6c-1.3 1.2-1.4 1-1.7-2.4-.1-.8 1-1.1 3.2-.9 1.9.2 3.2-.1 3.2-.8 0-.6.5-.8 1-.5.6.3 1 0 1-.8 0-1-.9-1.4-2.5-1.3-1.4 0-2.5.4-2.5.8 0 1.3-3.8.9-4.3-.5-.3-.6-.6-.3-.6.9-.1 1.1-.7 2.1-1.5 2.1s-1.2-.6-.9-1.3c.3-.8-1.1-1.5-3.9-2-4.3-.7-4.3-.7-1.4-1.5 1.8-.5 3.5-.4 4.2.2.8.7 1.3.3 1.7-1.3.7-2.6.3-3.3-1.4-2.3-.6.4-3.1.8-5.5.9-4.2.1-4.3.1-2.6-1.9.9-1.1 2.1-2.3 2.6-2.6.5-.4-.1-1.7-1.3-3-1.1-1.2-1.8-2.5-1.5-2.8.3-.3.9 0 1.3.7.6.9 1.5 1 3.4.3 2.3-.9 2.5-1.4 2-4.7-.6-3.5-.5-3.7 1.8-3.1 1.3.4 3.2.7 4.2.7 1.3 0 1.7.5 1.2 1.9-.8 2.7 2.9 3.1 9 1.1 4.9-1.6 4.9-1.7 2-2.3-1.9-.3-3.6 0-4.6.9-1.3 1.2-1.8 1.2-3.5-.1-1.5-1.2-1.6-1.6-.6-2.3 1.1-.7.9-1-.7-1.5-1.2-.3-2.1-1.3-2.1-2.2 0-1.2-.5-1.5-2-1-1.1.4-2 .2-2-.4 0-.6 1.1-1.1 2.5-1.1 1.3 0 2.8-.6 3.2-1.4.4-.7 1.5-1.6 2.3-1.9 1.2-.4 1.1-.6-.2-.6-2.5-.1-2.3-2.1.1-2.1 3.5 0 3.2-1.8-.4-3.6-3.5-1.6-4.3-3.9-1.4-3.9 2-.1 4-1.5 3.4-2.4-.2-.5-1.6-.6-3-.3-1.5.2-2.5 0-2.5-.7 0-.6.9-1.1 2.1-1.1 1.1 0 1.8-.4 1.5-.9-.4-.5.3-.7 1.3-.4 1.2.3 2.6-.3 3.7-1.5 1.4-1.6 2.1-1.8 3.5-.9 1 .6 1.5 1.5 1.3 1.9-1 1.5 1.8.8 4.6-1.2 2.1-1.5 3.4-1.8 5.2-1.1l2.3.9-2.7.7c-4.4 1.1-2.3 2.4 3.5 2.1 2.8-.2 4.4-.1 3.5.1-1 .3-1.8.8-1.8 1.2 0 .5-1.3 1.1-3 1.4-1.6.4-3 1.1-3 1.5 0 .5 1.4 1.2 3 1.5 2.5.6 3 1.1 3 3.6 0 2.6-.4 2.9-3.7 3.3-2.4.3-4.3-.1-5.2-.9-1.2-1.2-1.8-1-4 1.1-3.3 3.1-5.5 3.4-4.8.6.3-1.3 0-2-.9-2-.8 0-1.4.7-1.4 1.5 0 2.4-3 6.5-4.8 6.5-3 0-.3 1.1 3.7 1.5 3.8.4 5.7-.8 2.9-1.8-.7-.2-1-.8-.6-1.2.4-.4 1.4-.3 2.2.4 1.1.9 1.9.5 4.1-2.1 1.6-1.8 3-2.8 3.2-2.3.3 1.1 9.3.7 9.3-.4 0-.4 1.6-.7 3.6-.8 3.6-.1 3.6 1-.1 2.1-1.1.3-.4.4 1.6.3 2.7-.2 3.5.1 3.2 1-.3.7-1.2 1.3-2 1.3-.9 0-1.3.6-1 1.4.4 1-.2 1.6-1.6 1.8-1.2.2-2.1.9-2 1.6.2.6-.2 1.2-.7 1.2-.6 0-1-.4-1-.8 0-.9-6.7-.8-7.7.1-.3.4.5.7 1.8.7 1.9 0 2.1.2.9 1-.8.5-2.5.6-3.8.3-2.9-.7-4.1.9-3.4 4.3.6 3.1 3 3.1 4.2-.1 1-2.5 2.6-3 6.8-1.9 2.6.7 3 2.2.5 2-1 0-1.7.5-1.6 1.1.2.8-.8 1.3-2.6 1.3-1.6 0-3.1.6-3.5 1.5-.7 1.8-3.2 2-4 .2-.3-.8-1.1-.5-2.4 1-1.1 1.3-2.7 2.3-3.6 2.3-.9 0-1.6.4-1.6.9 0 .4 2.7 1.1 6 1.5 4 .5 6 1.1 6 2 0 .8-.8 1.3-1.7 1.2-1.2-.1-1.8.6-1.8 1.9 0 1.3.6 1.9 1.8 1.9 1-.1 1.6.3 1.4 1-.2.6-1 1.1-1.8 1.1s-1.4 1-1.5 2.5c0 1.4-.6 2.4-1.2 2.2-.7-.1-1.2.5-1.2 1.3 0 1.3 4.4 1.5 33.6 1.5 30.9 0 33.8-.1 35-1.7.8-1.2.9-2.2.2-3-.7-.8-.4-1.5.9-2.4 1.4-.8 1.8-2 1.5-4.6-.4-3.2-.2-3.4 1.9-3.2 1.3.2 2.9.1 3.4-.3.6-.3 1.7.1 2.5 1 1.3 1.4 1.2 1.5-.3.9-2.2-.8-3.4 1.3-1.4 2.8 1 .7 1.4 2 1 3.3-.3 1.2-.1 2.2.5 2.2s1.2 1 1.4 2.2c.3 2.1.9 2.3 6.6 2.6 5.7.3 6.4.1 6.9-1.8.6-2.4 2.3-2.7 2.3-.4 0 .8.4 1.3 1 .9.5-.3.7-1.2.4-1.9-.3-.8-.1-1.7.5-2.1.6-.3 1.4.1 1.7 1 .5 1.1 1 1.3 1.9.5.9-.7 1.6-.6 2.5.5.7.8 1.9 1.5 2.6 1.5.8 0 1.4.4 1.4.8 0 .5 3 .8 6.6.9 4.6 0 6.2-.3 5.5-1-.6-.6-1.1-1.8-1.1-2.7 0-1.7-1.9-2.2-5.8-1.4-1.3.2-2 .9-1.7 1.4.3.5.1 1.1-.5 1.5-.5.3-1-.3-1-1.4 0-1.2-.4-2.1-1-2.1-.5 0-1-.5-1-1 0-.6.7-1 1.5-1s1.5-.7 1.5-1.5c0-2.2 1.5-1.8 3.4.8.9 1.2 1.5 1.7 1.2 1.1-.3-.7.3-1.4 1.4-1.7 1.1-.3 2 0 2 .6 0 .7.4.6 1-.3 1.4-2.3 2.4-.3 2.1 4.2-.2 3 .1 3.9 1.1 3.6.7-.3 1.3-1.6 1.3-2.9 0-1.9.6-2.4 2.5-2.4 1.4 0 2.6-.5 2.8-1 .1-.6-.8-1-2-1-1.7 0-2.6-.9-3.5-3.5-.7-1.9-1.3-3.6-1.3-3.7 0-.1 1.5 0 3.4.2 3.3.5 3.4.4 3.1-2.5-.4-2.7-.2-3 1.9-2.4 2.5.6 5.5-1.9 3.6-3.1-1.6-1-1.2-2.5.8-2.5 1.5-.1 1.5-.2-.2-1.5-2.5-1.9-5.6-2.1-3.8-.3 1.9 1.9 1.4 3.1-1 2.5-1.2-.4-2.9-.1-3.7.6-1.2 1-1.4.8-.9-1 .4-1.3.2-2.6-.3-2.9-.5-.3-.7-1-.4-1.5.4-.5 0-.9-.7-.9-.8 0-.6-.5.5-1.1 1.4-.8 2.3-.7 3.8.7 1.5 1.3 2.2 1.5 3.1.6.9-.9.9-1.2 0-1.2-2.3 0-1.2-1.6 2-2.8 2.6-.9 3-1.4 2-2.4s-1.5-1-2.2.2c-.7 1.1-1 .7-1-1.8 0-1.7-.4-3.2-1-3.2-.5 0-1 .9-1 2 0 1.3-.7 2-2 2-1.1 0-2 .4-2 1 0 .5.5 1 1 1 .6 0 1 .4 1 .9s-.9.7-1.9.4c-1.3-.3-1.8-1-1.4-2.1.5-1.2.1-1.4-1.8-.9-1.3.4-3 .7-3.7.7-.7 0-1.1.4-.7.9.3.5.1 1.2-.5 1.6-.5.3-1-.1-1-.9 0-2.2-1.9-2-2.7.1-.4 1-1.1 2.2-1.7 2.6-.6.5 1.4.6 4.4.3 5.5-.6 5.5-.6 2.3.9-2.1.9-3.3 2.1-3.2 3.2.1 1.7.2 1.7.6 0 .6-2.4 2.6-1.6 2.8 1.1.1 1.7-.4 2.2-2.1 2.2-3.3 0-5.4-1-5.4-2.7 0-.8-.4-1.2-.9-.9-.4.3-.6 1.7-.3 3.2.4 2 .1 2.5-.9 2.2-.8-.3-1.3-1.2-1.1-2.1.1-.9-.5-2.8-1.4-4.2-1.8-2.7-1.2-4.7.8-2.7.7.7 1.6 1.2 2.2 1.2.5 0-.1-.9-1.4-2-2.8-2.4-3.9-2.5-4.6-.5-.5 1.1-1 1.3-1.9.5-.8-.6-3-.8-5.4-.4-3.1.5-4.1.3-4.1-.7 0-1.1-.2-1.1-1 .1-.8 1.3-1.5 1-4-1.7-3-3.2-3.9-5-1.9-3.7.8.4.8 0 0-1.5-1.3-2.4-.9-2.6 2-1.1 2.3 1.3 4.9.2 2.8-1.1-1.1-.6-1-1.2.5-2.8 1.5-1.6 2.2-1.8 4.1-.9 1.3.6 3.1.8 4 .4 1.4-.5 1.5-.9.4-2.2-.7-.8-2.1-1.3-3.1-1.1-1.2.3-1.8 0-1.8-1 0-1.1.8-1.4 3-1.1 1.6.2 3.1 0 3.3-.5.1-.5 1.5-.3 3 .4 2.1.9 3 1 3.9.1.9-.9.7-1.5-.8-2.6-1.8-1.4-1.8-1.5.9-2.5 1.6-.6 3.3-1.1 3.8-1.1s1.4-1.2 2-2.8c1-2.6 1.1-2.6 2.5-.8 1.8 2.6 1.8 1.7-.2-3-1.6-3.7-1.5-3.9.5-5.2 1.2-.8 2.1-2.1 2.1-2.8 0-.8.9-1.4 1.9-1.4 2.2 0 3.7 1.6 2 2.2-1.9.6.2 3.6 2.9 4.1 3.3.7 4.7-.5 3.5-2.8-.6-1-.6-4.3 0-8.3.9-6.8 1.6-8.7 2.4-6.5.3.7.9 1.3 1.4 1.3.6 0 .7-.5.4-1-.6-1 2.3-10 3.5-11 4-3.2 5.3-12.9 2.9-21.5-.9-3-.8-4 .1-4.3.7-.3 0-1.2-1.7-2.3-2.5-1.7-4.3-2.4-4.3-1.7zM108.5 304c-.4 1.1-.2 2 .4 2 .6 0 1.1-.5 1.1-1 0-.6.7-1 1.5-1 .9 0 1.2.6.9 1.5-.4 1 0 1.5 1.5 1.5 2.5 0 2.7 2.2.5 4.4-1.8 1.8-3.4 2.1-3.4.6 0-.6-.7-1-1.5-1s-1.5-.5-1.5-1.1c0-.6.7-.9 1.5-.5.8.3 1.5.1 1.5-.5 0-.5-.8-1.3-1.7-1.6-2.3-.8-3.2-2.3-2.6-4 .8-2.1 2.5-1.5 1.8.7zm-7.3 6.4c.4 1.7.1 2.3-.9 1.9-1.4-.5-1.7-2.5-.6-3.6.9-1 1-.9 1.5 1.7zM94 310c0 .5-.5 1-1.1 1-.5 0-.7-.5-.4-1 .3-.6.8-1 1.1-1 .2 0 .4.4.4 1zm-13.2 4.2c-.6 1.8-2.8 2.1-2.8.4 0-.9.7-1.6 1.6-1.6.9 0 1.4.5 1.2 1.2zm15.2.3c0 .8-.6 1.5-1.4 1.5-1.7 0-2.8-1.4-1.9-2.4 1.2-1.2 3.3-.6 3.3.9zm-22.2.6c-.2.6-.7 1-1.1 1-.4-.1-1.4-.1-2.3-.1-.8 0-1.2-.5-.9-1 .8-1.3 4.8-1.3 4.3.1zm49.3 1.1c2.3 2.5 2.4 3.8.5 3.8-1.7 0-2.9-1.7-3.1-4.2-.2-2.3.4-2.3 2.6.4zm-41 3c1.1-.1 1.9 1.1 2.3 3 .3 1.7.4 3.3.2 3.5-.7.7-4.6-2.1-4.6-3.3 0-2.5-3.2-2.3-5.6.3-1.3 1.4-2.4 2.1-2.4 1.5 0-.6-.8-1.3-1.7-1.5-1.1-.3-.7-.5 1-.6 2.5-.1 4.1-2.1 1.6-2.1-.5 0-.7-.5-.3-1.1.4-.7 2-.9 4.3-.4 2 .4 4.3.7 5.2.7zm167.9 4.3c0 .9-.9 1.5-2.5 1.5-2.6 0-3.4-1.5-1.2-2.3 2.3-1 3.7-.7 3.7.8zm-183.6.6c-.3.5-1.1.9-1.9.9-.8 0-1.6-.4-1.9-.9-.3-.5.5-.9 1.9-.9s2.2.4 1.9.9zm45.6-.1c0 1.3-1.1 1.3-3 0-1.2-.8-1.1-1 .8-1 1.2 0 2.2.4 2.2 1zm6 .6c0 .4-.8 1.3-1.7 2-1.6 1.2-1.4 1.3 2 1.4 3.7 0 4.8 1.2 2.5 2.6-.8.5-.6 1 .8 1.5 1.7.6 1.5.8-1 1.4-1.9.5-3.1.4-3.6-.5-.4-.7-1.7-1-2.9-.7-2.2.5-2.9-.7-1.1-1.8.6-.4.8-1.5.5-2.5-.4-1.2.1-2.2 1.2-2.9 2.1-1.2 3.3-1.4 3.3-.5zm-25.3 6.1c1.3 1.3 2 2.8 1.7 3.7-.6 1.6.4 2 3.6 1.7 1.3-.2 1.3-.1 0 .9-1.3.9-1.3 1.2.3 2.4.9.7 1.7 2 1.7 2.9 0 .8.6 1.8 1.3 2.1 1 .5 1 .7 0 1.2-1.6.7-1.7 4-.3 4.9.6.4.8 1 .5 1.5-.3.5 0 1.2.6 1.6.6.3 1.5.1 1.9-.6.5-.8 1.5-1 2.6-.6 1.8.7 1.7.9-.5 2.5-2.1 1.6-2.2 1.9-.8 2.7 1.1.7 1.3 1.4.7 2.4-.8 1.3-1.1 1.2-2.3-.4-1-1.3-1.6-1.5-2.1-.8-1.2 1.9-2.8 1.4-2.1-.7.7-2.4-1.1-3.7-2.9-2.1-1.1.8-1.4.6-1.2-1.3.1-1.8.5-2.3 2-1.9 1.3.3 1.7.1 1.2-.6-.4-.7-1.5-1.2-2.5-1.2-.9 0-2.2-.5-2.9-1.2-.8-.8-1.5-.8-2.6.1-1.2 1-1.4.9-.9-.7.3-1.3-.3-2.5-1.6-3.4-1.8-1.3-1.9-1.7-.7-2.7 2-1.7 2.6-4.9 1.1-6.4-.7-.7-1.6-2.4-2-3.6-.6-2-.4-2.3.9-1.8.9.4 1.6.3 1.6-.2s-1-1.2-2.2-1.6c-2-.6-2-.8-.5-1.2.9-.2 1.7-1.2 1.7-2.1.1-1.4.3-1.4 1.2.3.6 1.1 2.2 3 3.5 4.2zm19.3-2.5c0 1.9-.2 2-1.2.6-.7-.9-2-1.8-2.8-2.1-.8-.3-.3-.6 1.3-.6 2.1-.1 2.7.3 2.7 2.1zm-43 1.3c-4.7 1.8-5.5 1.8-4 0 .7-.8 2.7-1.5 4.4-1.4l3.1.1-3.5 1.3zM31.5 331c-.3.5-1.2 1-1.8 1-.7 0-.6-.4.3-1 1.9-1.2 2.3-1.2 1.5 0zm204 7.4c-.1 1.5-1 2.2-3 2.4-2.6.3-2.7.3-1.1-1.3.9-1 1.5-2 1.2-2.2-.7-.7-6.6 2-6.6 2.9 0 .5-.4.8-1 .8-.5 0-1-.6-1-1.4 0-1.4 4.9-3.6 8.1-3.6 1.1 0 1.8-.3 1.8-.8-.1-.4-.1-1.2.1-1.7.3-1.7 1.7 2.7 1.5 4.9zm-210.8.3c-.2 1.3 0 2.6.4 2.9 1.6 1 .9 2.4-1.1 2.4-1.1 0-2 .7-2 1.6 0 1.4.2 1.4 2.2 0 2.8-2 3.8-2 3.8-.1 0 .8.7 1.5 1.5 1.5s1.5.6 1.5 1.2c0 .7.3 2.3.6 3.4.4 1.5 0 2.3-1.2 2.8-2.3.9-4.4-1.2-2.4-2.4 1.2-.7 1.1-1-.5-1.6-1.2-.5-2-.3-2.3.4-.2.7-1.7-.6-3.3-2.8-2.9-4-3.7-7-1.9-7 .6 0 1-1.1 1-2.3 0-2.9.7-3.7 2.7-3 .9.4 1.3 1.5 1 3zm87.9.1c.1 2 .1 2-.3.2-.2-1.1-1.3-2-2.3-2-1 0-2.1-.4-2.4-.9-.4-.5.5-.6 2.1-.2 1.9.5 2.8 1.4 2.9 2.9zM128 336c0 .5-.2 1-.4 1-.3 0-.8-.5-1.1-1-.3-.6-.1-1 .4-1 .6 0 1.1.4 1.1 1zm-12 3c0 .5-.2 1-.4 1-.3 0-.8-.5-1.1-1-.3-.6-.1-1 .4-1 .6 0 1.1.4 1.1 1zm10 0c0 .5-.9 1-2.1 1-1.1 0-1.7-.5-1.4-1 .3-.6 1.3-1 2.1-1s1.4.4 1.4 1zm10 0c0 .5-.2 1-.4 1-.3 0-.8-.5-1.1-1-.3-.6-.1-1 .4-1 .6 0 1.1.4 1.1 1zm9.3 1.5c-.7 2.1-1.3 1.9-1.3-.6 0-1.1.4-1.8 1-1.4.5.3.7 1.2.3 2zM140 342c-2 1.3-4 1.3-4 0 0-.6 1.2-1 2.8-1 2.1 0 2.4.2 1.2 1zm88 .4c0 .3-.4.8-1 1.1-.5.3-1 .1-1-.4 0-.6.5-1.1 1-1.1.6 0 1 .2 1 .4zM67 344c-2 1.3-5.3 1.3-4.5 0 .3-.6 1.8-1 3.3-1 2.1 0 2.4.2 1.2 1zm-29.6 1.9c.3.5-.8 1.1-2.4 1.3-3.5.5-4.1-.8-.7-1.5 1.2-.2 2.3-.5 2.4-.6.1 0 .4.3.7.8zM64 348c0 .5-.9 1-2 1s-2-.5-2-1c0-.6.9-1 2-1s2 .4 2 1zm87.3-.3c-.7.2-1.9.2-2.5 0-.7-.3-.2-.5 1.2-.5s1.9.2 1.3.5zm-4.4 1.7c1 1.2.5 1.5-2.9 2.1-4.1.7-7.6-.7-6.4-2.6.8-1.4 8-1 9.3.5zM64 352c0 .5-.7 1-1.6 1-.8 0-1.2-.5-.9-1 .3-.6 1-1 1.6-1 .5 0 .9.4.9 1zm22 2.5c0 1.6-.6 2.5-1.6 2.5-1.1 0-1.4-.5-1-1.6.3-.9.6-2 .6-2.5s.5-.9 1-.9c.6 0 1 1.1 1 2.5zm6.7-1.9c-.3.3-1.2.4-1.9.1-.8-.3-.5-.6.6-.6 1.1-.1 1.7.2 1.3.5zm-39.7 3c0 1.4-2.7 3.1-3.5 2.2-.2-.2-.2-1.3.1-2.5.7-2.4 3.4-2.1 3.4.3zm89.5-1.6c.3.5-.1 1-1 1s-1.3-.5-1-1c.3-.6.8-1 1-1 .2 0 .7.4 1 1zm-101.8 2.7c-.3.3-1.1.2-1.7-.2-.9-.6-.9-1 .1-1.6 1.4-.8 2.7.7 1.6 1.8zm-5.7-.9c0 1.6-4.1 3.3-5.8 2.3-1.5-.9-1.4-1.1.8-2 3.1-1.2 5-1.3 5-.3zm113 .6c0 1.1-1.9 1.5-2.5.6-.3-.5.1-1 .9-1 .9 0 1.6.2 1.6.4zm-55.9 4.8c-1 2.7-3.4 3-3.9.6-.2-1.1.5-1.8 2-2.1 1.3-.2 2.4-.5 2.5-.6.1 0-.1.9-.6 2.1zm60.3-.8c-.3.8-1.5 1.6-2.6 1.9-1.1.3-1.7 1-1.3 1.6.3.6-.2 1.1-1.2 1.1-3 0-2.4-4 .7-4.6 2.1-.5 3.4-.8 4.7-1.3.1-.1 0 .5-.3 1.3zm-98.6 2.5c1.1.6 1.1 1 0 1.9-1.6 1.3-4.4-.1-3.4-1.7.8-1.3 1.6-1.4 3.4-.2zm47.9 5c-1.9.8-2.9-1.7-1.6-4l1.3-2.4.6 3c.3 1.6.2 3.2-.3 3.4zm-83.1-3.3c-.3.9-.6 2-.6 2.5s-.7.9-1.5.9c-.9 0-1.5-.9-1.5-2.5 0-1.9.5-2.5 2.1-2.5 1.5 0 1.9.4 1.5 1.6zm39.9-.6c.3.5-.1 1-1 1s-1.3-.5-1-1c.3-.6.8-1 1-1 .2 0 .7.4 1 1zm39.7 2.8c.3 1.2-.1 1.8-1.2 1.8-1.1 0-1.5-.6-1.2-1.8.2-1 .8-1.8 1.2-1.8.4 0 1 .8 1.2 1.8zm-27.5.8c-.3.3-1.2.4-1.9.1-.8-.3-.5-.6.6-.6 1.1-.1 1.7.2 1.3.5zm142.1 2.4c.3 1.9 0 2.1-4.5 1.8-3.5-.2-4.7-.7-4.5-1.7.2-.8-.1-1.7-.7-2-.5-.4 1.4-.6 4.2-.5 4.5.2 5.2.5 5.5 2.4zm-68.1 2.7c-.3 1-.5.4-.5-1.2 0-1.7.2-2.4.5-1.8.2.7.2 2.1 0 3zm-49.1-.2c-.3.9-1 1.3-1.6 1-.6-.4-.5-1.1.3-2 1.5-1.6 2.2-1.1 1.3 1zm-12 .9c2.2 1.7 1.1 3.5-1.3 2-1.9-1.2-2.9-3.4-1.6-3.4.5 0 1.8.6 2.9 1.4zM48 375c0 1.3-.7 2-2 2-1.9 0-2.7-2-1.3-3.3 1.3-1.4 3.3-.6 3.3 1.3zm-29.2.9c.3.8-.1 1.2-.9.9-.7-.2-1.5-1-1.7-1.7-.3-.8.1-1.2.9-.9.7.2 1.5 1 1.7 1.7zm184.2.5c-2.5.6-5.1 1.5-5.7 1.9-.7.5-1.3.4-1.3-.1 0-1.5 4.2-3.1 8-3 3.5 0 3.4.1-1 1.2zm13.7-.8c-.3.3-1.2.4-1.9.1-.8-.3-.5-.6.6-.6 1.1-.1 1.7.2 1.3.5zm7.1 1.6c-.6 1.8-2.5 2-3.1.3-.5-1 0-1.5 1.4-1.5 1.2 0 1.9.5 1.7 1.2zm16.5 0c.2.8 2.2 1.3 5 1.3 4.7 0 6.2.9 3 1.9-2.7.7-12.8.2-12.6-.7.4-1.1 2.7-3.6 3.5-3.7.3 0 .8.6 1.1 1.2zm-45.3.2c0 .3-.4.8-1 1.1-.5.3-1 .1-1-.4 0-.6.5-1.1 1-1.1.6 0 1 .2 1 .4zm13 .5c0 1.4-2.8 3.3-4 2.6-2-1.2-1-3.5 1.5-3.5 1.4 0 2.5.4 2.5.9zM77.5 379c-.3.5-1.2 1-2 1s-1.7-.5-2-1c-.4-.6.5-1 2-1s2.4.4 2 1zm11.6-.1c-.8.5-1.2 1.8-.8 3 .3 1.4 0 2.1-.9 2.1-1.8 0-1.9-4.6-.1-5.3 2.1-.9 3.3-.7 1.8.2zm143.9.1c0 .5-.6 1-1.4 1-.8 0-2.3.3-3.3.6-1.6.5-1.6.4.1-1 2.2-1.8 4.6-2.1 4.6-.6zm-184.5 1c.3.5-.1 1-1 1s-1.3-.5-1-1c.3-.6.8-1 1-1 .2 0 .7.4 1 1zm127.2 2.2c-.3.7-.5.2-.5-1.2s.2-1.9.5-1.3c.2.7.2 1.9 0 2.5zm-155.3 1.3c.5 2.2.4 2.6-.4 1.5-.5-.8-1-2.4-1-3.4 0-2.6.6-1.8 1.4 1.9zm124.1-2.5c-.4.6-.2 1.6.3 2.3.5.7.6 2.1.2 3.2-.7 1.8-.9 1.8-1.9-.8-1.4-3.6-1.4-4.4.2-5 1.8-.8 1.9-.8 1.2.3zm-61.2 1.4c.3.8-.1 1.7-.9 2-.9.4-1.4-.1-1.4-1.4 0-2.3 1.5-2.7 2.3-.6zm111.7-.5c0 .6-.4 1.3-1 1.6-.5.3-1-.1-1-.9 0-.9.5-1.6 1-1.6.6 0 1 .4 1 .9zm29 1.9c0 1 .9 2.3 2 3 2.1 1.3 2.7 3.2 1.1 3.2-.5 0-1.6-.6-2.3-1.3-.7-.8-1.8-1.2-2.4-1-1.6.5-2.3-1.8-1.3-4.5 1-2.5 2.9-2.1 2.9.6zm20 .2c0 1.3-1.1 1.3-3 0-1.2-.8-1.1-1 .8-1 1.2 0 2.2.4 2.2 1zm-182.3.6c-.3.3-1.2.4-1.9.1-.8-.3-.5-.6.6-.6 1.1-.1 1.7.2 1.3.5zm176.3 3c0 1.6-1.6 1.9-2.5.4-.3-.6-1.6-1-2.8-1-1.6 0-1.8-.3-.9-.9 1.9-1.2 6.2-.1 6.2 1.5zm-214.6 5.9l.6 5-1.5-5.5c-1.7-6.7-1.7-6.6-.6-5.5.5.6 1.2 3.2 1.5 6zm123.2-2.1c1.8-.6 1.8-.6-.1.8-3.3 2.5-6.5 3.2-6.5 1.4 0-.9.7-1.6 1.5-1.6s1.5-.6 1.5-1.3c0-.9.2-.9.8.1.5.7 1.7 1 2.8.6zm73.4-.4c0 .5-.4 1-1 1-.5 0-1-.5-1-1 0-.6.5-1 1-1 .6 0 1 .4 1 1zm-138 .4c0 1.1-1.9 1.5-2.5.6-.3-.5.1-1 .9-1 .9 0 1.6.2 1.6.4zm6.5.6c-.3.5-.1 1 .6 1 .8 0 .8.4-.1 1.5-.7.9-2.8 1.5-4.9 1.4-3.2 0-3.4-.1-1.3-1 1.3-.5 3-1.6 3.8-2.4 1.7-1.7 2.8-2 1.9-.5zm7.2-.4c-.3.3-1.2.4-1.9.1-.8-.3-.5-.6.6-.6 1.1-.1 1.7.2 1.3.5zm-45.3 1.9c.3.8.1 1.5-.4 1.5-.6 0-1-.7-1-1.5s.2-1.5.4-1.5.6.7 1 1.5zm10.6-1.1c0 1.1-1.9 1.5-2.5.6-.3-.5.1-1 .9-1 .9 0 1.6.2 1.6.4zm113 1c0 1.1-1.9 1.5-2.5.6-.3-.5.1-1 .9-1 .9 0 1.6.2 1.6.4zm-40 1.6c0 .5-.4 1-1 1-.5 0-1-.5-1-1 0-.6.5-1 1-1 .6 0 1 .4 1 1zm80 2c0 .5-.2 1-.4 1-.3 0-.8-.5-1.1-1-.3-.6-.1-1 .4-1 .6 0 1.1.4 1.1 1z"/><path d="M101 356.1c0 .5.5.7 1 .4.6-.3 1-.8 1-1.1 0-.2-.4-.4-1-.4-.5 0-1 .5-1 1.1zM24 348c0 .5.5 1 1 1 .6 0 1-.5 1-1 0-.6-.4-1-1-1-.5 0-1 .4-1 1zM132.7 282.4c-1.9 1.3-3.9 2.1-4.3 1.8-.4-.4-.3-.1.1.7.6 1.1.4 1.3-1.1.7-1-.4-1.5-.4-1.2 0 .4.3.1 1.8-.6 3.3-.7 1.4-1.2 4.2-1.1 6.1.1 1.9.3 4.7.3 6.2.1 1.6.6 2.8 1 2.8.5 0 .6-2.6.4-5.9-.4-5.7-.3-5.9 3.3-9.2 2-1.8 5.5-4.6 7.8-6.1 3.9-2.6 4-2.8 1.6-2.8-1.4 0-4.2 1.1-6.2 2.4zM269 281.5c0 .6 6.9 3.5 8.4 3.5.6 0-.9-.9-3.3-2-4.6-2.1-5.1-2.3-5.1-1.5zM279.6 285.8c-.3.4.4.9 1.5.9 2.3.2 2.5-.3.4-1-.8-.4-1.6-.3-1.9.1zM101.5 300c-.3.5.1 1 1 1s1.3-.5 1-1c-.3-.6-.8-1-1-1-.2 0-.7.4-1 1zM264.5 300c.3.5.8 1 1.1 1 .2 0 .4-.5.4-1 0-.6-.5-1-1.1-1-.5 0-.7.4-.4 1zM264.7 303.6c-.3.3-.3 1.3 0 2.2.4 1.5.3 1.5-.6.2-.8-1.1-1.3-1.2-2.2-.3-1.6 1.6-.2 3.3 2.7 3.3 1.9 0 2.4-.5 2.4-2.4 0-2.5-1.2-4-2.3-3zM304.1 312.6c0 1.1.3 1.4.6.6.3-.7.2-1.6-.1-1.9-.3-.4-.6.2-.5 1.3zM263.1 315.7c-1.2 1.3-1.2 1.6 0 2.4.9.6 1.5.4 1.7-.6.6-2.6-.2-3.4-1.7-1.8zM277 317c-1.2.8-1.1 1 .8 1 1.2 0 2.2-.5 2.2-1 0-1.3-1.1-1.3-3 0zM297.3 320.7c-.7.2-1.3 1.3-1.3 2.4 0 1.8.1 1.8 2 .2 3-2.6 2.6-4-.7-2.6zM349.5 323c-2.8.7-2.8.8-.5.9 1.4 0 3.2-.4 4-.9 1.7-1.1.8-1.1-3.5 0zM302.8 323.7c-1 .2-1.8.9-1.8 1.5s1 .8 2.3.4c1.2-.3 2.8-.6 3.5-.6.7 0 1-.5.7-1-.6-1-1.7-1.1-4.7-.3zM350 327.1c0 .4.8 1 1.8 1.2 1.2.3.9.5-.8.6-2.4.2-2.4.2-.6 1.6 1.1.8 2.9 1.5 3.9 1.5 1.6 0 1.7-.3.7-1.5-.8-1-.9-1.5-.2-1.5.6 0 .9-.6.6-1.4-.5-1.4-5.4-1.9-5.4-.5zM290.8 328.2c.5.5 1.6.8 2.3.6.8-.3.3-.7-1-1.1-1.7-.4-2.1-.3-1.3.5zM306.8 327.7c.7.3 1.6.2 1.9-.1.4-.3-.2-.6-1.3-.5-1.1 0-1.4.3-.6.6zM276 330.1c-.9 1.5-.9 2.4-.1 3.2.8.8 1.1.5 1.1-1 0-1.2.5-2.3 1.2-2.5.9-.3.9-.6.1-1.1-.7-.5-1.7.2-2.3 1.4zM315 329.5c0 2.3 3.1 6.6 4.2 5.9.5-.3.3-1.3-.7-2.4-.8-.9-1.3-2.4-.9-3.4.4-1.1.1-1.6-1-1.6-.9 0-1.6.7-1.6 1.5zM344.8 328.7c.7.3 1.6.2 1.9-.1.4-.3-.2-.6-1.3-.5-1.1 0-1.4.3-.6.6zM346.7 334.1c-.9.5-2.1.8-2.6.5-1-.7-2.3 3.3-1.5 4.6.3.4 1.3.4 2.2-.1.9-.4 2.3-.6 3-.4.6.3 1.2 0 1.2-.6s1.1-1.7 2.5-2.3c1.4-.6 2.5-1.5 2.5-2 0-1.1-5.1-1-7.3.3zM248 335.4c0 .8-.7 1.7-1.6 2-.8.3-1.2 1-.9 1.6.4.6 1.2.7 1.8.3.7-.4 1.9-.6 2.9-.5 2.2.4 3.3-1.6 1.8-3.3-1.6-1.9-4-1.9-4-.1zM263.3 337.5c-.3.9-.3 1.8-.1 2.1.3.3.8-.4 1.1-1.6.6-2.3-.1-2.7-1-.5z"/><path d="M319 338.4c-1.4 3.8-.7 5.6 2.5 5.6 2.5 0 2.5.1.9 2.5-.9 1.4-1.4 3.1-1.1 4 .4.8.2 1.7-.3 2-1.5.9-1.2 2.5.5 2.5 1.6 0 2.2 4.6.6 5.2-.4.1-1.2 1.4-1.6 2.7-.6 2.1-.5 2.3 1.3 1.9 2.4-.7 4 2.4 4.6 8.5.2 2.1.6 4 1 4.4 1 1.1.7 3.6-.8 5.2-.7.9-1.6 2.9-1.9 4.6-.4 1.6-.4 2.4-.1 1.7.3-.6.9-1.2 1.4-1.2.8 0 2.5 7.5 2.2 10.2-.1 1.5 1.9 1.7 23.6 1.8 26.7.1 24 .8 28.4-8.3 1-2 2.3-3.7 2.8-3.7.6 0 1-.8 1-1.8s.5-2.3 1.1-2.9c1.3-1.3 5.9-12.2 5.9-14.1 0-.6-.9-1.2-2-1.2-1.2 0-2 .7-2 1.6 0 1.1-.6 1.5-2 1.1-1.1-.3-1.7-.1-1.4.4.3.6.1 1.5-.4 2.2-.6.7-1.3 2.9-1.7 5-.7 3.4-1 3.8-3 3.3-1.4-.4-2.5-.1-2.8.7-.2.7-.8.8-1.3.3s-.4-1.1.4-1.3c.6-.3 1.2-1.1 1.2-1.9 0-.8.5-1.4 1-1.4.6 0 1-1.3 1-3 0-1.6.9-5.2 1.9-8 1.1-2.8 1.8-5.8 1.6-6.8-.2-.9-.4-2.1-.4-2.6-.1-.6-1.1.1-2.3 1.4-1.3 1.4-2.2 2.8-2 3.3.1.5-.2.6-.7.3-1.3-.9-3.2 1.9-2.5 3.8.3.9.1 1.6-.5 1.6s-1.1 1-1.1 2.2c0 3.2-1.6 5.3-3.9 5.4-2.2.1-1.8-2.3.8-4.3 1.1-.8 1.2-1.2.4-1.3-2.1 0-1.5-3.8.8-5.1 1.4-.7 1.9-1.7 1.6-3-.4-1.6-.2-1.7 1.4-.8 1.3.6 1.9.6 1.9-.1 0-.5-.5-1-1-1-.7 0-.7-.6-.2-1.8 1.6-3 .2-4.5-1.9-2-1.3 1.6-1.8 1.9-1.8.8 0-1.7 3-10.8 4.3-12.8.6-1 .1-1-2.2.2-1.8.9-2.9 2.3-2.8 3.3.1 1.4-.6 1.8-2.6 1.6-1.8-.1-2.8.3-2.8 1.2 0 .8-1.7 1.9-3.9 2.5-3.2.8-4.1 1.6-4.6 3.9-.3 1.6-1.3 3.2-2.2 3.5-1.1.5-1.4.2-.8-1.1 1.3-3.5 1.7-7.3.8-7.3-1.1 0-3.3 4.4-3.3 6.5 0 .8-.3 1.5-.8 1.5-.4 0-1.8 2.2-3.1 5-2.7 5.7-4.5 6.3-5.9 2-1.1-3-.2-4.7 1.8-3.5.6.3 1-.1 1-1 0-.8-1-1.9-2.2-2.4-1.8-.6-1.9-.9-.5-1.4.9-.3 2.3.1 3.2.9 1.3 1.4 1.5 1.4 1.5 0 0-.8-.8-1.9-1.7-2.5-1.4-.8-1.5-1.2-.4-2.5s1.1-1.7-.4-2.2c-1.5-.6-2.4.1-5.6 4.9-1.1 1.6-8.3 2.7-9.1 1.4-.4-.6-.2-1.5.5-1.9 1.3-.8.2-2.3-1.6-2.3-.7 0-1.1-1.1-1-2.3.2-1.2-.2-2.2-.8-2.2-1.1 0-.8-2.6.8-6.6.5-1.3.3-1.6-.9-1.1-1.2.4-2-.4-3.1-3.1l-1.5-3.7-1.2 2.9zm49.4 22.1c.3.9 0 1.5-.9 1.5-.7 0-1.7.9-2 2-.3 1.1-1.3 2-2.1 2-1.9 0-1.8-.6.8-4 2.4-3.4 3.3-3.7 4.2-1.5zm-34.4 1.7c.8 2.1.9 2.1 1 .3 0-1.5.2-1.7.9-.6 1.4 2.2.1 5.3-2 4.8-1.1-.3-2.2 0-2.6.6-.9 1.4-2.2-4.1-1.5-6.1.7-2 3.2-1.4 4.2 1zm1 7.3c0 .8-.4 1.5-1 1.5-.5 0-1-.7-1-1.5s.5-1.5 1-1.5c.6 0 1 .7 1 1.5zm3.5 4.2c.7-1.6 3.5-2.5 3.5-1-.1 1.8-2.7 4.2-4.3 3.9-2.4-.3-3-1.3-2.2-3.3.7-1.7.8-1.7 1.5.2.7 1.8.8 1.9 1.5.2zm-4.8 4.5c-.3.8-.6.5-.6-.6-.1-1.1.2-1.7.5-1.3.3.3.4 1.2.1 1.9zm4.6 2.8c-.3 1.1-.9 2-1.4 2-1.1 0-1.1-.3-.3-2.4.9-2.3 2.3-2 1.7.4zm35.5 3.8c.6 1.8-1.5 1.4-2.2-.4-.4-1-.1-1.4.6-1.2.6.2 1.4 1 1.6 1.6zm-35.6 2.7c-.2 1.9-.8 3.7-1.2 4-.4.2-.5-.8-.3-2.3 1-5.9 2.1-7.3 1.5-1.7zm39.7.6c-1 1.9-2.9 1.8-2.9-.2 0-.6.5-.7 1.2-.3.7.5.9.2.5-.9s-.2-1.4.8-1c1.1.4 1.2 1 .4 2.4zm-15.7 1.1c-.7.7-1.2.8-1.2.2 0-1.4 1.2-2.6 1.9-1.9.2.3-.1 1.1-.7 1.7zm6 0c-.7.7-1.2.8-1.2.2 0-1.4 1.2-2.6 1.9-1.9.2.3-.1 1.1-.7 1.7zm3.8 4.2c0 .3-.4.8-1 1.1-.5.3-1 .1-1-.4 0-.6.5-1.1 1-1.1.6 0 1 .2 1 .4zm-36 3.1c-1.5 1.8-3.3 2-2.7.2.2-.6 1-1.1 1.6-1 .6.2 1.1-.2 1.1-.9 0-.6.3-.8.6-.5.4.4.1 1.3-.6 2.2zM267 341.6c0 .8.5 1.2 1 .9.6-.3 1-1 1-1.6 0-.5-.4-.9-1-.9-.5 0-1 .7-1 1.6z"/><path d="M345.9 341.6c-.7.9-2.1 1.9-3.1 2.3-1.6.6-1.6.9-.4 3.3.8 1.5 1.2 2.9.9 3.2-1 1 2.6 3.6 4.1 3 2.1-.8 2-2.1-.1-3.3-1.4-.7-1.5-1.2-.4-2.5.7-.8 1-2 .6-2.6-.3-.5-.2-1 .4-1 .5 0 1.1.6 1.4 1.2.3.9.7.7 1.2-.5 1.6-3.9-1.9-6.3-4.6-3.1zM247.7 346c.3 1.1.9 2 1.4 2 1.1 0 1.1-.3.3-2.4-.9-2.3-2.3-2-1.7.4zM119 345.4c0 .2.7.6 1.5 1 .8.3 1.5.1 1.5-.4 0-.6-.7-1-1.5-1s-1.5.2-1.5.4zM353.5 348.1c-.4 1.1-.5 2.3-.2 2.6.9.9 4.7-1.7 4.7-3.2 0-2.3-3.8-1.8-4.5.6zM8.7 347.7c-.4.3-.7 1.1-.7 1.7 0 .6.5.5 1.2-.2.6-.6.9-1.4.7-1.7-.3-.3-.9-.2-1.2.2zM310.7 348.3c-1.1 2.9-.9 4.3.4 3 .6-.6.9-1.9.7-2.9-.3-1.8-.4-1.8-1.1-.1zM360.7 347.6c-.8.8.1 2.4 1.4 2.4.5 0 .9-.7.9-1.5 0-1.5-1.2-2-2.3-.9zM234 349.5c0 .8.2 1.5.4 1.5s.6-.7 1-1.5c.3-.8.1-1.5-.4-1.5-.6 0-1 .7-1 1.5zM240 348.8c0 1.5 2.4 3.2 4.4 3.2 1.8 0 1.9-.1.1-2-1.8-2-4.5-2.7-4.5-1.2zM338 349c0 .5.7 1 1.6 1 .8 0 1.2-.5.9-1-.3-.6-1-1-1.6-1-.5 0-.9.4-.9 1zM126 350.9c0 .6-1.5 1.2-3.2 1.4-2.9.3-2.7.4 1 .5 3.1.2 4.2-.2 4.2-1.3 0-.8-.4-1.5-1-1.5-.5 0-1 .4-1 .9zM226.3 350.8c-.7.4-.9 1.3-.5 1.9.5.8 1.1.7 1.9-.3 1.4-1.5.3-2.7-1.4-1.6zM247.8 352.4c-.3 1.6 0 2.7.9 3 2.2.9 2.6.7 2-.8-.4-1-.1-1.3.7-1 .8.3 1.7.1 2.1-.5.3-.6-.1-1.1-.9-1.1-.9 0-1.6-.5-1.6-1 0-2.1-2.8-.9-3.2 1.4zM230.6 354.1c-2.2 2.1-1.4 3.9 1.5 3.2 1.9-.5 2-.4.8 1.5-.7 1.1-1.8 1.8-2.4 1.4-.5-.4-1.7-.7-2.5-.7s-1.4-.7-1.4-1.6c.1-1.4-.8-1.6-5.3-1.5-4.7.1-5.3.3-5.1 2.1.2 1.4-.4 2.1-1.9 2.3-4 .6-2.4 2.2 2.1 2.2 2.6 0 4.8-.6 5.6-1.5.9-1.1.9-1.5.1-1.5-.7 0-.9-.5-.6-1 .9-1.5 2.5-1.2 2.5.5 0 .9.9 1.5 2.4 1.5 1.4 0 2.7.4 3.1.9.3.6 1.7.3 3.3-.6 3.1-1.8 3.6-4.9 1.2-7.3-1.4-1.4-1.7-1.4-3.4.1zM259.3 353.7c-.7 1.9 5.1 7.4 7.7 7.2 1.1-.1 1.1-.2-.3-.6-.9-.2-1.5-.9-1.2-1.3.3-.5-.3-1.5-1.5-2.2-1.1-.7-2-2.1-2-3 0-2.3-1.9-2.3-2.7-.1zM310.1 356.6c0 1.1.3 1.4.6.6.3-.7.2-1.6-.1-1.9-.3-.4-.6.2-.5 1.3zM241 358.5c0 1.7.2 1.8 2.4.9 1.8-.7 1.2-2.4-1-2.4-.8 0-1.4.7-1.4 1.5zM256.8 357.7c.7.3 1.6.2 1.9-.1.4-.3-.2-.6-1.3-.5-1.1 0-1.4.3-.6.6zM276.4 359.3c-.6 1.8.2 3.7 1.7 3.7 1 0 .7-3.5-.4-4.6-.4-.4-.9 0-1.3.9zM263.3 365.5c-.7 2-.5 2.2 3.1 3.1l2.9.7-1.9-2.6c-2.2-3-3.2-3.3-4.1-1.2zM123.8 367.7c.7.3 1.6.2 1.9-.1.4-.3-.2-.6-1.3-.5-1.1 0-1.4.3-.6.6zM118 368.4c0 .9 3 1.4 3.5.6.4-.6-.3-1-1.4-1-1.2 0-2.1.2-2.1.4zM259.8 368.7c.7.3 1.6.2 1.9-.1.4-.3-.2-.6-1.3-.5-1.1 0-1.4.3-.6.6zM303 370c0 .5.5 1 1.1 1 .5 0 .7-.5.4-1-.3-.6-.8-1-1.1-1-.2 0-.4.4-.4 1zM266.5 371.9c-.3.5-1.9 1.2-3.6 1.6-2.1.5-2.9 1.1-2.5 2.2.3.8.6 1.7.6 1.9 0 1.1 3 .2 4.6-1.3 1.5-1.6 1.7-1.6 2.9 0 .7.9 1.5 1.7 1.9 1.7 1.1 0 .6-1.8-1-3.4-.8-.9-1.2-2-.9-2.6.3-.5.2-1-.4-1-.5 0-1.2.4-1.6.9zM104.7 378.8c-.9 1.5-1.7 2.1-1.7 1.4 0-1.1-3-1.8-3-.7 0 .8 3.4 4.5 4.1 4.5.8 0 3.3-6.9 2.7-7.5-.2-.2-1.1.8-2.1 2.3zM109.2 378.5c-.7 1.4-1.2 3.4-1.2 4.3.1.9.7-.1 1.5-2.3 1.6-4.5 1.4-5.8-.3-2zM322.5 377c-.3.5-.3 1.5.1 2.1.6 1.1 2.3-.6 2.4-2.4 0-1-1.8-.9-2.5.3zM276.5 380.6c-1.9 4.5-1.9 5.5-.2 2.9 1.4-2 2.8-6.5 2.1-6.5-.2 0-1.1 1.6-1.9 3.6zM318 378c0 .5.5 1 1 1 .6 0 1-.5 1-1 0-.6-.4-1-1-1-.5 0-1 .4-1 1zM3.1 379.6c0 1.1.3 1.4.6.6.3-.7.2-1.6-.1-1.9-.3-.4-.6.2-.5 1.3zM280 379.9c0 .5.9.7 2 .4 1.1-.3 2-.7 2-.9 0-.2-.9-.4-2-.4s-2 .4-2 .9zM315 383c0 1.2 4 3.4 4.8 2.6.3-.3.2-.6-.3-.6-.4 0-.2-.7.5-1.5 1.1-1.3.8-1.5-1.9-1.5-1.7 0-3.1.4-3.1 1zM285 384c0 .5.7.7 1.5.4.8-.4 1.5-.8 1.5-1 0-.2-.7-.4-1.5-.4s-1.5.4-1.5 1zM4.7 384.7c-.4.3-.7 1.1-.7 1.7 0 .6.5.5 1.2-.2.6-.6.9-1.4.7-1.7-.3-.3-.9-.2-1.2.2zM260.9 384.4c-.2.3-1.8.7-3.4.9-2.3.3-2.9.9-2.7 2.3.5 2.5 1.2 3.2 1.2 1 0-.9.4-1.5 1-1.1 1.5.9 6-.6 6-2.1 0-1.3-1.2-1.9-2.1-1zM264 384.9c0 .5.7 1.1 1.5 1.5.8.3 1.5.1 1.5-.3 0-.5-.7-1.1-1.5-1.5-.8-.3-1.5-.1-1.5.3zM108.5 386c-.3.5.1 1 .9 1 .9 0 1.6-.5 1.6-1 0-.6-.4-1-.9-1-.6 0-1.3.4-1.6 1zM311 386c-1.1.7-1.2 1.2-.4 2 .8.8 1.4.7 2.3-.4 1.4-1.7.1-2.8-1.9-1.6zM248 387.6c0 .8.5 1.2 1 .9.6-.4.8-1.1.5-1.6-.9-1.4-1.5-1.1-1.5.7zM306.6 388.6c-.8 2.1-.1 2.8 1.9 2 .9-.3 1.5-1.1 1.3-1.8-.7-1.9-2.5-2-3.2-.2zM320.7 389.3c-.4 1-.7 2.6-.7 3.5.1 1.5.2 1.5 1.1-.1.6-1 .9-2.5.7-3.5-.3-1.6-.4-1.5-1.1.1zM117.5 390c-.3.5.1 1 .9 1 .9 0 1.6-.5 1.6-1 0-.6-.4-1-.9-1-.6 0-1.3.4-1.6 1zM303 391c0 .5.5 1 1.1 1 .5 0 .7-.5.4-1-.3-.6-.8-1-1.1-1-.2 0-.4.4-.4 1zM307.5 394c.4.6 1.5.8 2.6.5 2-.7 2.7.9.9 2-1.6 1-.3 2.2 2.2 2.1 3.2-.1 3.4-3 .3-4.4-3.2-1.5-6.8-1.6-6-.2zM265.6 395.6c-.4.9-.4 1.9-.1 2.2.2.3.7-.3 1.1-1.2.4-.9.4-1.9.1-2.2-.2-.3-.7.3-1.1 1.2zM381.4 395.2c-.5.8-.2.9.9.5.9-.3 1.9-.2 2.2.3.9 1.5 2.5 1.2 2.5-.5 0-1.8-4.5-2.1-5.6-.3zM248 396.3c0 .7.8 1.7 1.8 2.3 1.5 1 1.8.8 2-1.2.1-1.8-.3-2.4-1.8-2.4-1.1 0-2 .6-2 1.3zM255 395.5c0 2.2 1.9 3.8 3.8 3.2 1.2-.2 2.3 0 2.6.7.2.6.5.4.5-.5.1-1.9-2.5-3.3-4.1-2.3-.6.4-1.4 0-1.9-.7-.5-.8-.9-1-.9-.4zM269.2 398c-.7 1.2-.8 2-.2 2 .5 0 1-.5 1-1.1 0-.5.4-.7 1-.4.6.3.7-.1.4-.9-.8-2-.7-2-2.2.4zM300 397c-1.2.8-1.1 1 .8 1 1.2 0 2.2-.5 2.2-1 0-1.3-1.1-1.3-3 0zM321 397c-1.1.7-1.2 1.2-.3 2.1 1.5 1.5 4.8.7 4.8-1.1s-2.4-2.4-4.5-1zM377 399c0 .5.7 1 1.6 1 .8 0 1.2-.5.9-1-.3-.6-1-1-1.6-1-.5 0-.9.4-.9 1zM382.8 399.7c.7.3 1.6.2 1.9-.1.4-.3-.2-.6-1.3-.5-1.1 0-1.4.3-.6.6z"/></svg>